<?xml version="1.0" standalone="no"?>
<!DOCTYPE svg PUBLIC "-//W3C//DTD SVG 20010904//EN"
 "http://www.w3.org/TR/2001/REC-SVG-20010904/DTD/svg10.dtd">
<svg version="1.0" xmlns="http://www.w3.org/2000/svg"
 width="600.000000pt" height="400.000000pt" viewBox="0 0 600.000000 400.000000"
 preserveAspectRatio="xMidYMid meet">

<g transform="translate(0.000000,400.000000) scale(0.100000,-0.100000)"
fill="#e50707" stroke="none">
<path d="M4355 3318 c-43 -10 -329 -70 -830 -173 -170 -35 -710 -147 -1200
-249 -490 -102 -962 -200 -1050 -218 -179 -36 -232 -62 -271 -132 -45 -80 -52
-27 116 -836 28 -135 67 -321 86 -415 19 -93 40 -185 45 -203 15 -45 63 -99
110 -123 72 -36 -68 -62 1894 346 303 63 770 160 1040 215 269 56 506 110 526
121 53 26 97 84 109 143 12 54 23 -5 -230 1208 -21 103 -46 200 -54 215 -49
94 -160 133 -291 101z m171 -121 c29 -25 30 -31 250 -1095 61 -296 61 -312 9
-346 -13 -9 -99 -32 -192 -51 -92 -20 -220 -46 -283 -60 -63 -13 -245 -51
-405 -84 -856 -177 -2014 -418 -2268 -471 -175 -37 -217 -38 -253 -7 -24 21
-32 51 -109 418 -210 1009 -198 944 -181 981 9 18 26 39 37 46 12 8 161 43
333 78 171 36 453 94 626 130 173 36 410 85 525 109 680 141 1131 234 1440
300 193 40 371 74 397 74 36 1 53 -5 74 -22z"/>
<path d="M4012 2863 c-25 -3 -32 -8 -28 -20 3 -8 6 -21 6 -29 0 -7 15 -20 34
-28 19 -8 42 -26 51 -40 23 -35 149 -629 141 -662 -4 -14 -17 -36 -30 -48 -18
-16 -23 -29 -19 -49 7 -33 23 -34 89 -3 140 65 224 205 224 373 0 216 -126
431 -286 487 -46 16 -135 25 -182 19z"/>
<path d="M3736 2805 c-81 -18 -153 -38 -158 -43 -19 -19 -3 -47 32 -58 19 -6
37 -20 42 -30 10 -25 148 -674 148 -697 0 -9 -11 -24 -25 -33 -14 -9 -25 -25
-25 -35 0 -38 29 -38 194 -3 88 19 162 36 165 39 5 6 -7 74 -43 235 -12 58
-49 230 -81 383 -55 254 -61 277 -80 276 -11 -1 -87 -16 -169 -34z"/>
<path d="M3252 2701 c-96 -21 -180 -45 -188 -53 -21 -20 -7 -48 27 -55 16 -3
33 -10 38 -17 10 -12 151 -671 151 -706 0 -12 -11 -31 -25 -42 -29 -23 -32
-44 -7 -57 23 -12 379 62 401 84 21 21 4 47 -37 57 -35 9 -24 -31 -123 437
l-62 294 26 23 c30 26 35 59 11 68 -22 8 -20 9 -212 -33z"/>
<path d="M2610 2564 c-58 -13 -115 -26 -127 -29 -44 -10 -30 -58 92 -319 63
-136 115 -251 115 -255 0 -5 -30 -15 -67 -23 -66 -13 -68 -15 -71 -46 -4 -40
-3 -40 145 -7 19 5 27 -4 53 -55 36 -71 36 -77 9 -106 -26 -28 -18 -64 14 -64
47 0 379 78 387 91 12 18 -7 49 -29 49 -10 0 -25 8 -33 18 -9 9 -93 181 -188
382 -95 201 -177 370 -184 376 -8 9 -38 5 -116 -12z"/>
<path d="M1848 2403 c-29 -4 -32 -12 -22 -50 4 -14 17 -24 35 -28 44 -10 60
-43 90 -189 35 -163 35 -171 2 -205 -19 -18 -27 -35 -25 -52 5 -37 13 -40 67
-25 166 43 248 132 248 266 0 126 -53 222 -147 266 -42 20 -66 24 -136 22 -47
0 -97 -3 -112 -5z"/>
<path d="M1589 2346 c-176 -40 -179 -40 -179 -64 0 -24 17 -39 50 -44 24 -3
27 -11 103 -367 l78 -364 -30 -28 c-31 -28 -33 -52 -5 -63 14 -6 374 67 394
79 14 8 13 38 -2 53 -7 7 -22 12 -34 12 -30 0 -29 -2 -119 425 -87 412 -83
395 -98 394 -7 0 -78 -15 -158 -33z"/>
<path d="M2446 2255 c-3 -50 -11 -178 -16 -285 -13 -240 -21 -277 -66 -321
-36 -35 -44 -66 -20 -75 14 -5 126 14 209 37 29 8 37 15 37 34 0 19 -8 26 -42
37 -31 11 -46 22 -52 41 -6 17 -5 113 3 266 l13 238 -30 59 -30 58 -6 -89z"/>
</g>
</svg>
